<?xml version="1.0" standalone="no"?>
<!DOCTYPE svg PUBLIC "-//W3C//DTD SVG 20010904//EN"
 "http://www.w3.org/TR/2001/REC-SVG-20010904/DTD/svg10.dtd">
<svg version="1.0" xmlns="http://www.w3.org/2000/svg"
 width="1386.000000pt" height="1386.000000pt" viewBox="0 0 1386.000000 1386.000000"
 preserveAspectRatio="xMidYMid meet">
<metadata>
Created by potrace 1.11, written by Peter Selinger 2001-2013
</metadata>
<g transform="translate(0.000000,1386.000000) scale(0.100000,-0.100000)"
fill="#000000" stroke="none">
<path d="M7623 12782 c-22 -21 -60 -55 -84 -78 -24 -22 -63 -61 -86 -85 -22
-24 -54 -54 -70 -66 -15 -12 -38 -30 -51 -40 -13 -10 -66 -62 -119 -115 -53
-53 -101 -96 -107 -95 -6 1 -18 12 -27 25 -9 13 -20 23 -25 22 -13 -2 -96 20
-117 31 -45 24 -161 62 -285 93 -163 41 -178 43 -307 51 -55 4 -111 8 -125 10
-14 2 -61 7 -105 10 -44 4 -88 9 -97 10 -9 2 -44 6 -77 10 -33 3 -68 7 -78 9
-10 2 -54 9 -98 16 -123 18 -310 58 -415 89 -52 16 -105 29 -118 29 -29 1 -62
-26 -55 -45 4 -9 0 -11 -13 -6 -9 3 -15 2 -12 -3 8 -12 -17 -35 -28 -26 -4 4
-4 2 -1 -4 3 -6 -8 -25 -25 -42 -16 -18 -27 -32 -23 -32 3 0 -1 -7 -10 -16
-35 -36 -96 -137 -174 -294 -46 -91 -115 -226 -154 -300 -38 -74 -93 -180
-122 -235 -29 -55 -75 -141 -103 -191 -95 -172 -130 -249 -158 -349 -15 -55
-28 -107 -29 -115 0 -9 -4 -20 -7 -26 -4 -6 -9 -21 -12 -35 -2 -13 -11 -45
-19 -71 -8 -27 -13 -48 -10 -48 3 0 0 -6 -6 -14 -6 -8 -11 -18 -10 -22 1 -5 0
-16 -3 -24 -6 -15 -27 -90 -34 -119 -2 -9 -15 -59 -30 -111 -14 -52 -27 -102
-29 -110 -3 -8 -11 -40 -20 -70 -9 -30 -27 -95 -41 -145 -14 -49 -26 -94 -28
-100 -1 -5 -6 -27 -11 -48 -4 -20 -11 -40 -16 -43 -5 -3 -7 -10 -4 -15 4 -5 1
-9 -4 -9 -6 0 -11 -3 -10 -7 2 -16 -15 -57 -82 -193 -38 -77 -68 -141 -67
-143 1 -1 -11 -21 -25 -44 -15 -24 -24 -43 -20 -43 5 0 2 -4 -5 -9 -7 -4 -14
-15 -16 -23 -1 -9 -7 -22 -12 -29 -6 -8 -34 -57 -61 -109 -28 -52 -61 -113
-73 -135 -24 -43 -48 -85 -100 -180 -81 -145 -101 -184 -132 -245 -18 -36 -35
-67 -38 -70 -10 -10 -130 -255 -130 -266 0 -6 -7 -17 -15 -24 -9 -7 -13 -15
-11 -18 3 -2 -1 -14 -9 -26 -8 -11 -15 -28 -15 -37 0 -10 -4 -19 -9 -21 -5 -1
-11 -12 -13 -23 -1 -11 -6 -22 -9 -25 -3 -3 -18 -36 -33 -75 -15 -38 -33 -83
-40 -100 -38 -87 -47 -112 -50 -127 -1 -9 -8 -23 -15 -32 -7 -9 -11 -16 -8
-16 4 0 -2 -20 -13 -45 -11 -25 -17 -45 -13 -45 3 0 1 -6 -5 -12 -5 -7 -29
-69 -51 -138 -23 -69 -44 -132 -48 -140 -3 -8 -7 -19 -9 -25 -1 -5 -14 -48
-29 -95 -15 -47 -28 -89 -29 -95 -2 -5 -11 -37 -21 -70 -10 -33 -20 -64 -21
-70 -1 -5 -19 -71 -39 -145 -20 -74 -37 -139 -38 -145 -2 -5 -6 -16 -10 -22
-5 -8 -3 -13 4 -13 8 0 8 -4 1 -12 -5 -7 -13 -26 -16 -43 -5 -31 -12 -63 -22
-105 -3 -14 -7 -38 -10 -53 -2 -16 -6 -33 -10 -38 -3 -5 -7 -22 -9 -37 -2 -15
-11 -67 -20 -117 -9 -49 -19 -103 -21 -120 -2 -16 -6 -41 -9 -55 -2 -14 -7
-38 -9 -55 -2 -16 -9 -61 -15 -100 -6 -38 -13 -92 -16 -120 -2 -27 -7 -61 -9
-75 -3 -14 -8 -63 -11 -110 -4 -47 -8 -107 -11 -135 -26 -323 -21 -828 10
-1080 4 -27 8 -75 11 -105 2 -30 7 -66 10 -80 2 -14 7 -45 10 -70 6 -48 12
-85 15 -85 1 0 3 -16 5 -35 5 -48 13 -98 21 -122 3 -11 7 -30 9 -41 14 -88 51
-227 97 -357 22 -63 42 -125 45 -138 3 -12 9 -25 14 -28 5 -3 9 -14 9 -25 0
-10 4 -27 10 -37 5 -9 37 -96 71 -192 91 -260 155 -421 200 -500 4 -8 21 -41
36 -73 15 -31 31 -57 35 -57 5 0 8 -4 8 -9 0 -13 153 -274 170 -291 19 -19 60
-80 53 -80 -4 0 -3 -4 3 -8 6 -4 30 -34 55 -67 51 -69 69 -92 86 -110 7 -8 13
-19 13 -25 0 -6 4 -8 10 -5 5 3 10 1 10 -5 0 -15 44 -63 210 -231 304 -306
499 -446 692 -499 98 -26 109 -28 251 -36 204 -13 456 -8 692 13 39 4 82 7 98
7 15 1 27 5 27 9 0 5 4 6 9 2 5 -3 12 -1 16 5 4 6 10 8 14 5 7 -4 63 3 156 19
11 2 40 9 64 16 23 6 45 9 48 6 3 -2 25 6 50 20 53 28 60 29 77 11 16 -16 14
-182 -4 -247 -7 -25 -12 -47 -12 -50 1 -3 -6 -15 -14 -27 -8 -13 -12 -23 -8
-23 13 0 -49 -76 -105 -128 -31 -30 -79 -68 -108 -85 -28 -17 -57 -41 -64 -53
-27 -51 21 -144 75 -144 32 0 49 30 41 74 -6 32 -4 36 70 96 109 89 167 164
199 262 24 69 27 96 32 223 2 78 8 123 16 131 7 7 36 15 63 18 28 3 68 10 90
15 99 22 426 117 525 154 36 13 67 24 70 25 15 3 130 42 155 52 85 35 159 58
167 54 9 -6 4 -217 -6 -264 -3 -14 -9 -41 -12 -60 -18 -100 -132 -265 -196
-286 -10 -3 -18 -10 -18 -15 0 -5 -7 -9 -15 -9 -8 0 -15 -4 -15 -10 0 -5 -7
-10 -15 -10 -17 0 -61 -56 -59 -76 1 -8 2 -23 3 -33 3 -43 59 -81 91 -61 8 5
16 30 19 56 5 43 11 51 49 77 69 46 166 151 196 212 50 102 69 203 70 372 1
106 4 153 12 153 6 0 29 8 50 17 22 9 42 16 47 15 4 -1 7 3 7 10 0 6 3 8 6 5
4 -3 16 -1 28 5 11 7 23 13 26 13 3 1 19 8 35 15 17 7 35 14 40 16 6 1 39 14
74 28 36 14 71 26 78 26 7 0 13 5 13 10 0 6 3 9 8 8 4 -2 28 5 52 16 48 20
102 42 135 55 11 5 37 16 58 25 21 9 43 16 49 16 6 0 19 7 28 15 10 9 27 18
40 20 12 2 27 8 34 13 6 5 47 28 91 52 44 24 123 72 175 109 86 59 429 320
456 346 6 6 34 28 62 50 29 21 52 43 52 47 0 4 5 8 11 8 7 0 17 6 23 14 10 13
157 130 256 205 49 37 100 90 100 103 0 5 5 6 10 3 6 -3 10 0 10 9 0 8 4 16 8
18 16 7 121 145 145 193 15 28 45 70 67 95 22 24 40 50 40 57 0 7 3 13 8 13 4
0 23 29 42 65 19 36 38 65 43 65 4 0 7 4 7 9 0 5 23 43 50 84 28 42 62 100 76
131 14 31 30 58 35 61 5 4 9 13 9 21 0 19 68 173 81 184 3 3 12 22 18 42 7 21
17 40 22 43 5 4 9 14 9 23 0 9 6 28 13 42 7 14 21 48 31 75 20 53 50 126 67
160 6 12 11 27 13 35 3 16 4 18 41 110 12 30 28 73 35 95 7 22 18 54 25 70 11
26 43 118 52 150 1 6 12 42 23 80 25 81 87 308 95 345 3 14 9 34 12 45 8 23
12 40 17 75 5 27 34 163 43 195 2 11 6 31 7 45 2 14 8 50 15 80 6 30 13 65 16
78 2 13 6 31 9 40 3 9 7 28 10 42 2 14 12 64 21 112 9 49 13 92 10 98 -3 5 -2
10 3 10 5 0 9 6 9 13 0 13 11 91 17 122 2 11 7 45 12 75 4 30 8 57 9 60 1 4
12 94 20 160 2 14 6 61 10 105 4 44 9 82 10 85 2 3 6 46 10 95 4 50 9 106 11
125 2 19 6 58 9 85 3 28 7 68 9 90 2 22 7 85 11 140 4 55 9 120 11 145 3 25 7
136 8 246 2 111 6 206 10 212 3 6 2 13 -4 17 -6 4 -7 11 -4 17 4 5 8 94 10
197 1 102 5 308 8 456 3 149 8 407 11 575 5 287 12 460 21 469 2 2 -1 13 -7
24 -8 14 -8 18 0 13 7 -5 11 3 12 21 0 15 2 39 5 52 6 36 63 247 73 273 5 13
9 25 9 28 0 3 5 25 12 50 7 25 14 52 15 60 2 8 17 67 33 130 17 64 33 145 37
180 4 36 8 72 10 80 15 83 24 261 14 281 -4 8 -41 28 -81 44 -40 15 -77 32
-82 36 -6 5 -16 9 -23 9 -7 0 -32 9 -56 19 -23 11 -100 43 -172 71 -71 28
-144 58 -162 66 -17 7 -34 14 -38 14 -4 0 -21 7 -38 14 -156 72 -249 107 -347
130 -63 15 -134 34 -158 42 -23 8 -52 14 -64 14 -23 0 -151 -125 -278 -270
-129 -147 -196 -211 -215 -204 -15 6 -16 16 -11 78 6 78 11 114 20 143 3 10 8
33 11 51 5 28 30 135 39 167 1 6 6 28 11 50 4 22 10 45 14 50 3 6 6 15 7 20 6
31 18 73 53 191 21 72 42 151 46 175 10 59 13 75 26 139 6 30 12 60 13 65 1 6
8 21 15 33 7 13 10 26 7 29 -3 3 -1 14 4 24 6 9 12 35 16 56 3 21 10 58 15 82
7 33 7 46 -3 52 -6 4 -86 33 -178 64 -91 31 -174 60 -185 65 -75 34 -189 66
-305 84 -19 3 -154 30 -300 60 -146 30 -335 69 -420 86 -155 32 -357 86 -423
114 -34 14 -36 14 -74 -22z"/>
</g>
</svg>
